<?xml version="1.0" encoding="utf-8"?>
<!-- Generator: Adobe Illustrator 16.0.0, SVG Export Plug-In . SVG Version: 6.00 Build 0)  -->
<!DOCTYPE svg PUBLIC "-//W3C//DTD SVG 1.1//EN" "http://www.w3.org/Graphics/SVG/1.1/DTD/svg11.dtd">
<svg version="1.1" id="Layer_1" xmlns="http://www.w3.org/2000/svg" xmlns:xlink="http://www.w3.org/1999/xlink" x="0px" y="0px"
	 width="271.689px" height="77.625px" viewBox="0 0 271.689 77.625" enable-background="new 0 0 271.689 77.625"
	 xml:space="preserve">
<path fill="#E63C2F" d="M17.421,27.383c3.212-5.198,7.936-7.748,14.171-7.748c13.32,0.472,19.933,9.165,19.933,26.168
	c0,16.627-7.747,25.034-23.239,25.319c-15.589,0.095-23.43-7.369-23.43-22.39V6.125h6.33c4.157,0,6.235,2.173,6.235,6.332V27.383z
	 M17.421,45.238c-0.094,10.107,3.306,15.208,10.486,15.208s10.77-5.101,10.77-15.208c-0.283-9.637-3.779-14.36-10.581-14.36
	C21.295,30.878,17.798,35.601,17.421,45.238"/>
<path fill="#E63C2F" d="M69.287,33.429H56.723c1.511-9.26,8.03-13.793,19.555-13.793c13.794,0,20.784,4.533,21.068,13.793v17.003
	c0,13.793-8.313,19.934-21.824,20.879c-11.998,0.944-20.311-4.63-20.311-15.683c0.283-11.997,8.975-15.21,21.635-16.437
	c5.384-0.663,8.124-2.267,8.124-5.009c-0.284-2.833-2.929-4.251-8.124-4.251C72.405,29.932,69.949,31.067,69.287,33.429
	 M85.159,49.866v-4.628c-2.929,1.227-6.33,2.267-10.014,3.022c-5.007,0.945-7.558,3.307-7.558,6.991
	c0.284,3.969,2.362,5.857,6.33,5.857C80.908,61.109,85.159,56.952,85.159,49.866"/>
<path fill="#E63C2F" d="M116.997,12.266v58.1h-12.565V6.125h6.519C114.257,6.125,116.997,8.96,116.997,12.266"/>
<path fill="#E63C2F" d="M145.526,71.5c-15.115-0.473-22.672-9.26-22.672-26.262c0-17.007,7.652-25.509,22.86-25.604
	c15.873,0,23.336,9.731,22.39,29.287h-32.307c0.471,7.65,3.777,11.523,9.917,11.523c2.93,0,5.669-1.227,8.125-3.588
	c1.135-1.229,2.55-1.795,4.251-1.795h9.259C164.608,65.643,157.808,71.5,145.526,71.5 M135.985,39.946h18.8
	c-0.757-6.611-3.873-10.014-9.259-10.014C140.142,29.932,136.931,33.334,135.985,39.946"/>
<path fill="#E63C2F" d="M196.354,30.878c-7.462,0-10.675,6.235-10.675,13.887v25.601h-12.563V6.125h6.328
	c4.156,0,6.234,2.173,6.234,6.332v14.925c6.424-7.369,14.265-9.447,23.618-6.14c6.991,2.55,10.297,9.257,9.92,20.122v29.002h-12.469
	V44.765C206.748,36.356,203.535,30.878,196.354,30.878"/>
<path fill="#E63C2F" d="M266.833,50.432c0,8.599-2.173,14.265-6.613,17.006c-4.441,2.55-9.353,3.873-14.738,3.873
	c-5.194,0-9.825-1.417-14.169-4.251c-4.346-2.74-6.52-8.219-6.52-16.628V20.39h12.564v32.594c0,5.572,2.835,8.313,8.502,8.313
	c5.669,0,8.504-2.741,8.504-8.313V26.627c-0.094-4.159,1.89-6.237,6.046-6.237h6.424V50.432z"/>
<rect y="0" fill="none" width="271.689" height="77.626"/>
</svg>
